# xmcd
#
# Track frame offsets:
#	150
#	11628
#	20594
#	34539
#	47293
#	56912
#	68921
#	82567
#	93486
#	106017
#	117457
#	130061
#	140845
#	154128
#	169926
#	182282
#	194443
#	204542
#	216785
#	226533
#	239331
#	250011
#	263202
#	274694
#
# Disc length: 3832 seconds
#
# Revision: 1
# Processed by: cddbd v1.5.2PL0 Copyright (c) Steve Scherf et al.
# Submitted via: audiograbber 1.83.01
#
DISCID=400ef618
DTITLE=Howlin' Wolf - L'Anthologie du Blues #10
DYEAR=2016
DGENRE=Blues
TTITLE0=Sitting On The Top Of The World
TTITLE1=Smokestack Lightnin'
TTITLE2=You Can't Be Beat
TTITLE3=I Asked For Water (She giave me gasoline)
TTITLE4=So Glad
TTITLE5=Going Back Home
TTITLE6=My Life
TTITLE7=Somebody In My Home
TTITLE8=Nature
TTITLE9=Poor Boy
TTITLE10=Moanin' For My Baby
TTITLE11=I Didn't Know
TTITLE12=I'm Leaving You
TTITLE13=Change my Way
TTITLE14=Howlin' Blues
TTITLE15=I Better Go Now
TTITLE16=I've Been Abused
TTITLE17=Mr. Aiplane Man
TTITLE18=The Natchez Burnin'
TTITLE19=You Gonna Wreck My Life
TTITLE20=Who's Been Talking?
TTITLE21=Tell Me
TTITLE22=Howlin' For My Darlin'
TTITLE23=Spoonful
EXTD=
EXTT0=
EXTT1=
EXTT2=
EXTT3=
EXTT4=
EXTT5=
EXTT6=
EXTT7=
EXTT8=
EXTT9=
EXTT10=
EXTT11=
EXTT12=
EXTT13=
EXTT14=
EXTT15=
EXTT16=
EXTT17=
EXTT18=
EXTT19=
EXTT20=
EXTT21=
EXTT22=
EXTT23=
PLAYORDER=
